<svg width="100" height="100" viewBox="0 0 100 100" fill="none" xmlns="http://www.w3.org/2000/svg">
<path d="M49.6949 89.8401C40.3649 89.8401 31.0249 89.8501 21.6949 89.8401C14.9749 89.8301 10.1149 85.2401 10.0649 78.5301C9.96486 65.3501 9.98486 52.1601 10.0949 38.9701C10.1149 37.1301 10.7249 35.2101 11.4549 33.4801C13.6049 28.3601 15.9249 23.3101 18.2049 18.2501C20.3549 13.4601 23.9749 10.9801 29.3549 11.0001C43.0249 11.0501 56.6849 11.0401 70.3549 11.0001C75.6049 10.9801 79.2349 13.3601 81.3649 18.0601C83.7249 23.2701 86.1549 28.4501 88.3149 33.7501C89.1049 35.6901 89.5649 37.9101 89.5849 40.0001C89.6949 52.5201 89.5649 65.0401 89.6649 77.5701C89.7249 85.2101 84.1749 90.2201 77.1949 89.9401C68.0449 89.5801 58.8649 89.8501 49.7049 89.8501L49.6949 89.8401ZM49.9649 38.6901C38.3849 38.6901 26.8149 38.7101 15.2349 38.6701C13.3949 38.6701 12.2549 38.9801 12.2649 41.2201C12.3349 53.4901 12.2049 65.7501 12.3449 78.0201C12.4149 84.3701 16.0749 87.6801 22.4649 87.6801C40.5349 87.6801 58.6049 87.5401 76.6749 87.7601C82.5549 87.8301 87.4649 84.7301 87.3949 77.0401C87.2949 65.3601 87.3749 53.6701 87.3649 41.9801C87.3649 38.7801 87.2649 38.6901 83.9349 38.6901C72.6049 38.6901 61.2849 38.6901 49.9549 38.6901H49.9649ZM86.6749 36.4401C86.5949 35.7501 86.6249 35.3901 86.5049 35.1101C83.9149 29.2901 81.4249 23.4301 78.6549 17.7001C77.2149 14.7201 74.4549 13.2401 71.1349 13.2001C65.1449 13.1201 59.1549 13.2201 53.1649 13.1401C51.4449 13.1201 50.7649 13.7101 50.7749 15.4201C50.8149 21.7101 50.8249 28.0001 50.7749 34.2901C50.7549 36.0901 51.5849 36.4901 53.2149 36.4701C58.7049 36.4001 64.1949 36.4401 69.6849 36.4401C75.2449 36.4401 80.8049 36.4401 86.6649 36.4401H86.6749ZM12.7449 36.0601C13.4249 36.2701 13.6549 36.4001 13.8849 36.4001C24.9449 36.4201 36.0049 36.4001 47.0649 36.4501C48.5949 36.4501 48.8649 35.6301 48.8649 34.4201C48.8649 28.0501 48.8449 21.6801 48.8749 15.3001C48.8749 13.7301 48.2649 13.1201 46.6449 13.1301C40.5749 13.2001 34.4949 12.9501 28.4449 13.2801C26.3949 13.3901 23.6849 14.3501 22.5349 15.8601C17.9749 21.8901 16.0449 29.2601 12.7449 36.0501V36.0601Z" fill="black"/>
<path d="M41.1849 46.2501C43.5649 46.0701 46.0549 47.1701 48.0249 49.2201C49.3949 50.6401 50.2149 50.5201 51.6449 49.2201C57.3049 44.0401 65.7949 45.7301 68.6049 52.5601C70.1349 56.2801 69.8149 60.0501 67.0549 63.0201C62.3749 68.0701 57.4349 72.8901 52.4849 77.6801C50.6949 79.4201 48.7849 79.3101 46.9349 77.5101C42.1749 72.8701 37.4149 68.2401 32.8649 63.4001C29.7949 60.1401 29.3349 56.1601 31.2549 52.1101C33.0849 48.2501 36.2649 46.2601 41.1749 46.2501H41.1849ZM41.0649 48.4501C37.1949 48.4301 34.6549 50.0001 33.2449 53.0301C31.8049 56.1301 32.0549 59.2801 34.4649 61.8101C38.9349 66.5001 43.5849 71.0201 48.1549 75.6001C49.2149 76.6601 50.3049 76.8001 51.4149 75.6901C56.1149 70.9901 60.9149 66.3901 65.4549 61.5401C67.7349 59.1001 67.9249 55.9701 66.4349 52.9601C64.9949 50.0601 62.6049 48.5701 59.2649 48.4401C56.1049 48.3201 53.8249 49.8201 51.9449 52.0201C50.4049 53.8101 49.2249 53.7101 47.7249 51.9801C45.8949 49.8501 43.7049 48.2401 41.0849 48.4501H41.0649Z" fill="black"/>
</svg>
