<svg width="100" height="100" viewBox="0 0 100 100" fill="none" xmlns="http://www.w3.org/2000/svg">
<path d="M50.1654 80.7801C41.7854 80.7801 33.4154 80.8001 25.0354 80.7801C20.3154 80.7701 16.9654 78.5901 16.1654 74.4201C15.7954 72.4701 16.0354 69.9601 16.9954 68.2801C25.6154 53.1701 34.3754 38.1401 43.2654 23.1801C46.5654 17.6301 53.9054 17.6001 57.2054 23.1301C66.1054 38.0801 74.8954 53.1001 83.5354 68.2001C86.9954 74.2401 82.9054 80.7001 75.7854 80.7701C67.2454 80.8501 58.6954 80.7901 50.1554 80.7901L50.1654 80.7801ZM27.6954 76.2101C30.6254 77.1101 32.4154 75.3001 34.1254 72.4001C40.6554 61.3501 47.1254 50.2401 54.2854 39.5901C57.6154 34.6301 57.8154 30.8901 54.1954 26.2601C51.4654 22.7601 48.7154 22.4401 46.4754 26.2501C38.0054 40.6801 29.6354 55.1601 21.1154 69.5601C19.1254 72.9201 20.7654 76.8601 25.1054 76.2401C25.7554 76.1501 26.4254 76.2301 27.6954 76.2301V76.2101ZM60.5554 37.3501C52.5154 50.5001 44.8254 63.0801 36.8254 76.1801C42.7654 76.1801 48.1054 76.2101 53.4454 76.1301C53.9654 76.1301 54.6254 75.5501 54.9654 75.0601C59.7454 68.3101 64.4954 61.5301 69.1854 54.7201C69.5354 54.2201 69.7154 53.2101 69.4454 52.7401C66.6654 47.7801 63.7654 42.8801 60.5454 37.3501H60.5554ZM72.4854 57.6801C68.0554 64.0101 63.9854 69.8301 59.5554 76.1601C65.9554 76.1601 71.6354 76.2701 77.3154 76.1001C79.4954 76.0401 81.1654 73.2301 80.1454 71.2601C77.8554 66.8201 75.2554 62.5401 72.4854 57.6801Z" fill="black"/>
</svg>
