<svg width="100" height="100" viewBox="0 0 100 100" fill="none" xmlns="http://www.w3.org/2000/svg">
<path d="M84.93 49.67C84.93 57.55 84.96 65.43 84.93 73.3C84.9 80.24 81.28 83.95 74.38 83.97C58.47 84.02 42.56 84.02 26.65 83.97C19.73 83.95 16 80.07 16 73.1C16 57.26 16 41.42 16 25.58C16 19.05 20.01 15 26.47 15C42.46 15 58.46 15 74.45 15C80.9 15 84.86 18.84 84.91 25.29C84.98 33.42 84.93 41.54 84.93 49.67ZM24.57 19.58C24.52 19.81 24.47 20.04 24.42 20.27C27.56 23.43 30.67 26.64 33.9 29.71C34.27 30.06 35.47 30 35.98 29.67C45.68 23.32 55.33 23.27 65.02 29.7C65.5 30.02 66.6 30.18 66.92 29.88C70.26 26.71 73.49 23.43 76.75 20.18C76.65 19.98 76.56 19.79 76.46 19.59H24.57V19.58ZM31.26 64.94C30.99 64.53 30.53 63.85 30.1 63.16C25.2 55.44 24.55 47.39 28.34 39.04C29.21 37.13 31.22 35.06 30.87 33.47C30.45 31.61 28.04 30.18 26.47 28.59C24.71 26.81 22.92 25.05 21.14 23.28C20.96 23.4 20.78 23.52 20.6 23.64V75.73C24.3 71.99 27.7 68.54 31.26 64.94ZM76.26 79.48C76.4 79.27 76.54 79.06 76.68 78.85C73.42 75.6 70.2 72.32 66.86 69.17C66.54 68.87 65.31 69.19 64.72 69.57C55.14 75.74 45.61 75.67 36.14 69.41C34.99 68.65 34.3 68.73 33.39 69.67C31.33 71.82 29.17 73.89 27.08 76.02C26.13 76.98 25.25 78 23.88 79.49H76.26V79.48ZM80.44 23.67C80.22 23.54 80 23.4 79.78 23.27C76.54 26.53 73.26 29.77 70.1 33.11C69.81 33.41 70.03 34.52 70.36 35.03C76.62 44.64 76.72 54.25 70.38 63.84C69.55 65.1 69.81 65.87 70.8 66.8C72.84 68.74 74.79 70.78 76.79 72.76C77.81 73.76 78.88 74.72 80.43 76.17V23.67H80.44ZM65.63 36.55C64.07 38.42 62.72 40.19 61.22 41.82C58.88 44.37 56.44 46.83 54.04 49.33C56.41 51.92 58.75 54.55 61.16 57.1C62.73 58.76 64.4 60.32 66.02 61.92C72.17 55.82 72.21 43.93 65.63 36.54V36.55ZM62.92 65.07C59.02 61.18 55.14 57.27 51.16 53.47C50.88 53.2 49.62 53.54 49.17 53.96C46.76 56.22 44.46 58.6 42.13 60.94C40.76 62.31 39.4 63.7 38.04 65.08C44.62 71.2 56.57 71.19 62.92 65.06V65.07ZM62.99 34.14C56.85 27.83 43.27 27.91 38.18 34.1C42 37.92 45.82 41.79 49.73 45.56C50.02 45.84 51.18 45.67 51.56 45.31C55.38 41.67 59.13 37.94 62.99 34.15V34.14ZM46.64 49.47C42.8 45.54 38.83 41.47 34.85 37.4C28.88 42.35 28.87 56.45 34.64 61.51C38.71 57.43 42.76 53.36 46.64 49.47Z" fill="black"/>
</svg>
