<svg width="100" height="100" viewBox="0 0 100 100" fill="none" xmlns="http://www.w3.org/2000/svg">
<path d="M87 87H14C14 62.3268 14 37.6732 14 13C38.3268 13 62.6732 13 87 13C87 37.6732 87 62.3268 87 87ZM78.5162 57.5363C78.1611 55.8811 77.9243 53.4468 77.1351 51.2268C72.4395 38.2379 64.2911 27.2937 55.8073 16.5832C53.5976 13.7984 50.4013 13.8179 48.4481 16.8363C41.3849 27.6832 33.8284 38.3158 27.9686 49.7858C22.8981 59.6979 26.4692 69.1621 34.2822 76.7958C41.6808 84.001 53.1043 85.9484 62.6535 81.6642C72.7551 77.1268 77.7862 69.1232 78.5359 57.5558L78.5162 57.5363Z" fill="white"/>
<path d="M79 57.4009C78.269 69.0717 73.2114 77.1469 63.0961 81.7248C53.5341 86.0473 42.0951 84.1022 34.6865 76.8129C26.8433 69.111 23.2871 59.5621 28.3645 49.5614C34.2321 37.9889 41.7988 27.2612 48.8716 16.3174C50.8275 13.2916 54.028 13.2523 56.2407 16.062C64.7359 26.8682 72.8953 37.9299 77.5973 51.0154C78.4073 53.2552 78.6444 55.7112 78.9802 57.3812L79 57.4009ZM52.2104 17.7713C46.165 27.2415 40.4949 35.6311 35.4175 44.3351C33.2641 48.0092 31.644 52.2925 31.0118 56.4774C29.7672 64.8081 34.7853 73.1191 42.5495 77.1272C50.5311 81.2729 60.271 80.0744 67.0277 74.1211C73.8436 68.1286 76.1551 59.8176 73.0731 51.4083C68.6082 39.2856 60.8044 29.2063 52.2104 17.7517V17.7713Z" fill="black"/>
<path d="M51.9474 73C43.8751 72.9608 36.7501 65.8824 37.0067 58.9412C37.0462 57.9412 38.112 56.9804 38.7041 56C39.533 56.7843 40.9541 57.4706 41.0922 58.3529C42.0001 64.6667 45.6119 67.9804 51.8487 68.9608C52.6776 69.098 53.2895 70.5882 54 71.4314C53.1118 72.1176 52.2237 72.8039 51.9671 73H51.9474Z" fill="black"/>
</svg>
