<svg width="100" height="100" viewBox="0 0 100 100" fill="none" xmlns="http://www.w3.org/2000/svg">
<path d="M50.4739 70.9228C46.4139 70.9228 42.3439 70.7028 38.3039 70.9728C29.1939 71.5728 22.5739 66.1228 20.9139 56.5828C19.4639 48.2128 17.8039 39.8828 16.1639 31.5528C15.8639 30.0028 15.8039 28.5828 17.5239 28.1128C19.5039 27.5628 20.1039 29.1228 20.4639 30.6428C20.8439 32.2428 21.3139 33.8728 21.3639 35.5028C21.4639 38.4328 23.2539 39.8728 25.5439 41.1028C30.4739 43.7628 35.3939 44.2528 40.3739 41.2628C47.1039 37.2228 53.7939 37.2628 60.5439 41.2628C66.8139 44.9828 72.5939 43.2328 77.8339 39.3928C78.4239 38.9628 78.8639 38.1128 79.0339 37.3828C79.6239 34.9828 79.8739 32.4828 80.6339 30.1528C80.9239 29.2728 82.2639 28.7328 83.1239 28.0428C83.6539 28.9328 84.7439 29.9128 84.6239 30.7028C83.8739 35.7528 82.8639 40.7728 81.9239 45.7928C81.1939 49.6828 80.3639 53.5528 79.6839 57.4528C78.2439 65.7628 72.2839 70.8928 63.8739 70.9228C59.4039 70.9428 54.9339 70.9228 50.4639 70.9228H50.4739ZM77.6239 45.2028C76.3239 45.7128 75.5839 46.0128 74.8339 46.2828C69.3739 48.3228 63.9339 48.5328 58.8339 45.4128C53.1639 41.9428 47.7639 41.8928 42.0639 45.3928C36.9939 48.5028 31.5339 48.3628 26.0639 46.2928C25.3339 46.0128 24.6039 45.7228 23.2539 45.1928C24.1739 49.8828 24.8139 54.0028 25.8139 58.0428C27.1539 63.4428 31.0639 66.2928 36.6739 66.3028C45.9539 66.3028 55.2239 66.3028 64.5039 66.3028C69.5939 66.3028 73.7539 63.2928 74.9439 58.4528C75.9639 54.3028 76.6539 50.0728 77.6139 45.2028H77.6239Z" fill="black"/>
</svg>
