<svg width="210" height="210" viewBox="0 0 210 210" fill="none" xmlns="http://www.w3.org/2000/svg">
<rect width="210" height="210" fill="white"/>
<path d="M68.2911 116.902C64.4411 120.542 59.9311 124.812 55.2711 129.232C52.0811 126.122 48.5011 122.672 44.9511 119.182C36.2911 110.662 27.5911 102.172 19.0011 93.582C14.4311 89.002 15.2111 81.822 20.4511 78.542C24.3911 76.082 28.9811 76.692 32.7411 80.312C36.8811 84.292 41.0211 88.272 45.0011 92.412C52.7411 100.432 60.3611 108.562 68.2811 116.902H68.2911Z" fill="black"/>
<path d="M87.5711 138.192V157.482C83.3611 157.482 79.0711 157.442 74.7811 157.482C61.8711 157.632 48.9611 157.862 36.0511 157.922C33.9311 157.932 31.6711 157.632 29.7311 156.842C25.8011 155.252 23.6911 150.652 24.5511 146.512C25.4711 142.082 28.9711 138.982 33.4911 138.862C41.7311 138.652 49.9811 138.552 58.2211 138.422C67.5511 138.272 76.8711 138.142 86.2011 138.012C86.5311 138.012 86.8511 138.082 87.5711 138.172V138.192Z" fill="black"/>
<path d="M138.291 122.192H157.281C157.281 123.782 157.271 125.332 157.281 126.882C157.441 142.952 157.651 159.012 157.731 175.082C157.771 183.092 150.041 187.842 143.361 183.982C139.941 182.002 138.631 178.832 138.601 174.962C138.541 167.392 138.361 159.812 138.291 152.242C138.201 142.752 138.171 133.252 138.121 123.762C138.121 123.352 138.201 122.942 138.291 122.192Z" fill="black"/>
<path d="M116.201 140.842C120.641 145.102 125.141 149.402 129.841 153.912C126.391 157.522 123.011 161.062 119.621 164.582C110.741 173.832 101.871 183.102 92.9511 192.312C88.9511 196.432 83.2711 196.682 79.3211 193.062C75.2811 189.352 75.0311 183.572 79.1111 179.272C91.2011 166.522 103.411 153.882 115.571 141.202C115.681 141.092 115.851 141.032 116.201 140.832V140.842Z" fill="black"/>
<path d="M71.4111 87.5719H52.2711C52.2711 83.3219 52.3211 79.0419 52.2711 74.7619C52.1111 62.3619 51.8911 49.9619 51.7411 37.5719C51.7211 35.8319 51.6711 34.0419 52.0511 32.3719C53.1611 27.5919 57.6311 24.4819 62.2411 25.0519C67.1611 25.6619 70.7111 29.5119 70.8111 34.5219C71.0411 47.1719 71.2411 59.8119 71.4111 72.4619C71.4811 77.3519 71.4211 82.2519 71.4211 87.5819L71.4111 87.5719Z" fill="black"/>
<path d="M122.251 71.622V52.372C125.721 52.372 129.191 52.432 132.661 52.362C146.481 52.092 160.301 51.772 174.111 51.492C178.381 51.402 181.811 52.992 183.731 56.942C186.821 63.292 182.421 70.362 175.221 70.592C167.321 70.842 159.411 70.962 151.501 71.112C142.681 71.292 133.851 71.452 125.031 71.612C124.221 71.632 123.411 71.612 122.251 71.612V71.622Z" fill="black"/>
<path d="M140.991 92.9819C145.201 89.1719 149.811 84.9819 154.631 80.6119C156.901 82.8219 159.741 85.5719 162.581 88.3319C172.311 97.7919 182.051 107.232 191.761 116.712C194.711 119.592 195.641 123.052 194.251 126.972C192.931 130.692 190.191 132.782 186.291 133.242C183.091 133.622 180.431 132.382 178.171 130.182C169.101 121.362 159.991 112.582 150.981 103.692C147.611 100.362 144.501 96.7819 140.971 92.9819H140.991Z" fill="black"/>
<path d="M93.3911 69.0319C89.0711 64.5019 84.7711 59.9919 79.7611 54.7319C84.8611 49.9319 90.3111 45.0219 95.5111 39.8719C102.561 32.9019 109.421 25.7419 116.371 18.6819C119.311 15.6919 122.711 14.0819 126.961 15.5519C130.771 16.8619 133.031 19.5419 133.501 23.5719C133.861 26.6619 132.801 29.2819 130.631 31.4919C122.281 39.9919 113.971 48.5219 105.601 57.0019C101.681 60.9719 97.6611 64.8319 93.3811 69.0319H93.3911Z" fill="black"/>
</svg>
