<svg width="100" height="100" viewBox="0 0 100 100" fill="none" xmlns="http://www.w3.org/2000/svg">
<path d="M74.2598 36.7879C77.4498 34.6579 80.2298 32.8079 83.1698 30.8479C83.7698 31.7279 84.2698 32.4579 84.9898 33.5179C82.2898 35.3779 79.6799 37.1979 77.0499 39.0079C76.2999 39.5279 75.4698 39.9479 74.8098 40.5579C73.8498 41.4479 73.6798 42.5479 75.0298 43.1479C79.0598 44.9379 79.7498 48.5379 80.3098 52.3079C81.4198 59.7279 82.5998 67.1479 83.7698 74.5579C83.8498 75.0379 83.9499 75.5279 84.1199 75.9779C84.9099 77.9879 84.0798 79.2579 81.9398 79.2579C75.7199 79.2579 69.5098 79.2579 63.2898 79.2579C48.3698 79.2579 33.4598 79.2579 18.5398 79.2579C15.6898 79.2579 14.8198 78.4979 15.0298 75.5479C15.8298 63.9279 20.9898 54.7479 30.6698 48.1579C31.3998 47.6579 32.1198 47.1479 33.1998 46.3979C29.8898 44.1879 26.8798 42.1679 23.8698 40.1679C21.6698 38.6979 19.5298 37.0979 17.2398 35.7879C15.0498 34.5379 15.1898 33.3379 17.0998 31.6479C19.8298 33.4679 22.6298 35.3379 25.4298 37.1979C28.7398 39.3979 32.0198 41.6379 35.3798 43.7579C36.1298 44.2279 37.2998 44.6679 38.0498 44.4179C44.2198 42.3679 50.5798 42.2279 56.9498 42.4379C59.3198 42.5179 59.8798 41.6979 59.8198 39.4879C59.6998 34.5279 59.7998 34.5279 54.7398 34.5279C48.4398 34.5279 42.1398 34.5879 35.8498 34.4879C34.3198 34.4579 32.6898 34.1379 31.3098 33.5079C28.6798 32.3079 27.1398 29.2379 27.4598 26.5679C27.8298 23.5379 30.0198 21.0379 33.1198 20.4479C34.8898 20.1179 36.7298 20.0479 38.5398 20.0379C45.1698 19.9979 51.7998 19.9779 58.4298 20.0379C66.0298 20.1079 71.8098 24.3679 73.5598 31.2479C73.9598 32.8279 73.9798 34.4979 74.2498 36.7979L74.2598 36.7879ZM25.3798 73.9579C25.4598 74.1179 25.5498 74.2779 25.6298 74.4379H74.4798C70.9798 71.5579 67.3498 69.1279 63.6798 66.7779C63.1998 66.4679 62.4198 66.4879 61.7998 66.5479C58.3698 66.8579 56.2698 65.5979 55.1798 62.3379C54.2198 59.4579 51.7198 58.7679 49.0898 57.4279C49.0398 58.5379 48.8798 59.1879 48.9998 59.7779C50.0398 64.7179 44.2898 68.6979 39.8298 65.5879C39.3998 65.2879 38.4698 65.1679 38.0698 65.4279C33.7998 68.2179 29.5998 71.0979 25.3798 73.9479V73.9579ZM78.5598 72.5679C78.6498 71.7479 78.7298 71.4979 78.6998 71.2679C77.6498 64.1679 76.6598 57.0679 75.4398 49.9979C75.2598 48.9679 74.0998 47.4079 73.2498 47.3079C70.4998 46.9879 67.2898 46.3779 64.9898 47.4479C60.7898 49.4079 57.1098 52.4879 52.8798 55.3379C54.0798 56.1679 54.9198 56.7479 55.7898 57.3579C58.1998 55.1579 60.8398 54.3179 63.6398 55.8879C66.5298 57.5079 66.9298 60.1979 66.1698 63.2279C66.0698 63.6379 66.3898 64.3979 66.7598 64.6479C70.5598 67.2579 74.3998 69.7879 78.5698 72.5779L78.5598 72.5679ZM47.8998 24.5979C43.5898 24.5979 39.2798 24.5079 34.9798 24.6679C34.0098 24.7079 32.6998 25.4279 32.2498 26.2379C31.8598 26.9279 32.1798 28.4179 32.7398 29.1079C33.2298 29.7179 34.4898 29.9279 35.4098 29.9379C42.4498 29.9979 49.4898 29.9579 56.5398 29.9779C61.6998 29.9979 63.9798 32.2579 64.0198 37.3279C64.0298 38.5679 63.8998 39.8479 64.1498 41.0379C64.2598 41.5579 65.1998 42.3079 65.7298 42.2679C67.7398 42.1479 69.6998 39.7679 69.7198 37.7179C69.7198 36.5579 69.7598 35.3979 69.6898 34.2379C69.3498 28.8579 64.9798 24.6779 59.5898 24.6079C55.6998 24.5579 51.7998 24.6079 47.9098 24.5979H47.8998ZM19.7498 73.2779C20.3998 73.0279 20.7998 72.9479 21.1098 72.7379C26.1898 69.3179 31.2598 65.8979 36.3098 62.4379C36.7498 62.1379 37.1898 61.6479 37.3398 61.1479C39.0498 55.7279 39.3798 55.4579 44.7798 55.1779C44.9598 55.1779 45.1298 54.9279 45.5298 54.6279C43.3398 53.1579 41.2398 51.8579 39.2598 50.3979C38.0098 49.4679 36.9398 49.5379 35.6398 50.2479C30.3398 53.1279 26.1198 57.0879 23.1898 62.3679C21.3498 65.6779 20.0198 69.1779 19.7298 73.2779H19.7498ZM42.6598 47.4179C42.5598 47.7579 42.4698 48.0979 42.3698 48.4379C44.6698 49.9579 46.9498 51.4979 49.2698 52.9879C49.4898 53.1279 49.9698 53.1279 50.1898 52.9879C52.9098 51.2379 55.5998 49.4479 58.6498 47.4279H42.6598V47.4179Z" fill="black"/>
</svg>
