<svg width="100" height="100" viewBox="0 0 100 100" fill="none" xmlns="http://www.w3.org/2000/svg">
<path d="M88 63.6421V90H11V10H88V58.3789C82.5684 53.7474 81.1116 53.6421 74.7643 57.4316C71.8508 59.179 68.9373 60.9053 65.7949 62.7789C65.3162 54.5684 63.3808 52.6737 55.9305 52.5895C52.6424 52.5474 49.3127 52.8211 46.0454 52.5263C39.6773 51.9579 34.2665 53.8105 29.0638 57.6C26.6081 59.3895 23.1119 59.7263 20.0735 60.6526C18.367 61.1789 16.6397 61.5789 14.9332 62.0421C15.0373 62.6737 15.1414 63.3053 15.2662 63.9368C19.7405 65.2211 24.6727 66.5684 28.5643 62.9263C37.3673 54.7158 47.9392 56.9895 58.1365 57.0105C59.2603 57.0105 60.3632 58.9895 61.487 60.0632C60.3841 60.9474 59.3435 62.4632 58.1365 62.6316C55.2438 63.0316 52.2262 62.5895 49.3127 62.8842C48.0432 63.0105 46.8778 64.1684 45.65 64.8421C46.8154 65.5579 47.9808 66.8632 49.1878 66.9053C59.0105 67.2421 69.0622 68.3158 77.1992 60.6947C77.8235 60.1263 78.6976 59.4737 79.4467 59.4737C80.8203 59.4947 82.1938 60 83.5673 60.2947C83.1095 61.4737 82.9638 63.1158 82.1105 63.7684C79.093 66.1053 75.6592 67.8947 72.6624 70.2737C67.6054 74.2526 62.0697 75.5579 55.7016 75.3474C43.9227 74.9895 32.123 75.1579 20.3232 75.3474C18.6376 75.3684 16.9519 76.6526 15.287 77.3474C17.0351 78 18.7832 79.1789 20.5522 79.2C31.9981 79.3684 43.4857 78.6737 54.89 79.4316C69.1038 80.3789 78.323 71.7684 88.0208 63.6211L88 63.6421ZM49.4584 36.3158C49.4584 39.5789 49.2295 42.2105 49.5624 44.8C49.7081 46 50.9359 47.0737 51.6851 48.1895C52.3303 47.1158 53.4957 46.0632 53.5373 44.9684C53.683 40.5895 53.8703 36.1474 53.35 31.8105C52.3511 23.6421 48.0016 17.5368 40.1976 15.1158C36.5557 14 30.687 13.3053 28.6684 15.3263C25.2554 18.7368 28.0024 23.8947 30.4789 27.7684C34.7659 34.4421 41.4046 36.4842 49.4792 36.3158H49.4584ZM57.2 34.6316C57.637 35.0737 58.0741 35.5368 58.5111 35.9789C68.3962 34.6526 75.4927 27.4105 75.6592 18.6737C75.7216 15.7474 74.7643 13.7684 71.7051 13.6632C65.7949 13.4526 60.2592 14.7789 56.0762 19.2842C55.0981 20.3368 55.2438 22.4842 54.89 24.1053C55.327 24.2526 55.7849 24.4211 56.2219 24.5684C60.3632 20.3789 64.7335 16.8 71.1432 18.2316C70.9143 25.1579 67.5846 29.2421 60.6962 31.7263C59.3643 32.2105 58.3654 33.6421 57.2 34.6316Z" fill="white"/>
<path d="M88.0002 63.6421C78.3231 71.7895 69.0831 80.4 54.8694 79.4526C43.465 78.6947 31.9775 79.3895 20.5315 79.221C18.7626 79.2 17.0145 78.021 15.2664 77.3684C16.9521 76.6737 18.6169 75.3895 20.3026 75.3684C32.1023 75.2 43.9021 75.0105 55.681 75.3684C62.0491 75.5579 67.6056 74.2737 72.6418 70.2947C75.6385 67.9368 79.0723 66.1263 82.0899 63.7895C82.9431 63.1368 83.0888 61.4947 83.5467 60.3158C82.1731 60.021 80.8204 59.5158 79.4261 59.4947C78.6769 59.4947 77.7821 60.1263 77.1785 60.7158C69.0415 68.3368 59.0107 67.2842 49.1672 66.9263C47.9602 66.8842 46.8156 65.5789 45.6294 64.8631C46.8364 64.1895 48.0226 63.0316 49.2921 62.9053C52.2056 62.5895 55.2023 63.0316 58.1158 62.6526C59.3229 62.4842 60.3426 60.9895 61.4664 60.0842C60.3426 59.0105 59.2396 57.0316 58.1158 57.0316C47.9185 57.0316 37.3258 54.7368 28.5437 62.9474C24.6521 66.5895 19.7199 65.2631 15.2456 63.9579C15.1415 63.3263 15.0375 62.6947 14.9126 62.0631C16.6399 61.6 18.3672 61.2 20.0529 60.6737C23.0912 59.7474 26.6083 59.4105 29.0431 57.621C34.2458 53.8105 39.6358 51.9789 46.0248 52.5474C49.2921 52.8421 52.601 52.5474 55.9099 52.6105C63.3602 52.6947 65.2956 54.6105 65.7742 62.8C68.9167 60.9263 71.8302 59.2 74.7437 57.4526C81.0702 53.6632 82.5477 53.7684 87.9794 58.4V63.6842L88.0002 63.6421Z" fill="black"/>
<path d="M49.4585 36.3158C41.3839 36.4842 34.7661 34.4421 30.4582 27.7684C27.9817 23.9158 25.2347 18.7579 28.6477 15.3263C30.6663 13.3052 36.535 14 40.1769 15.1158C47.9809 17.5368 52.3512 23.6421 53.3293 31.8105C53.8496 36.1474 53.6623 40.5895 53.5166 44.9684C53.475 46.0631 52.3096 47.1158 51.6645 48.1895C50.9153 47.0737 49.6874 46 49.5417 44.8C49.2088 42.2316 49.4377 39.5789 49.4377 36.3158H49.4585ZM32.0399 18.0631C31.8109 27.4947 39.8855 33.5789 48.9799 31.1789C46.7947 22.1263 41.6545 18.0631 32.0399 18.0631Z" fill="black"/>
<path d="M57.2001 34.6316C58.3655 33.6421 59.3645 32.2105 60.6964 31.7263C67.5847 29.2211 70.9145 25.1579 71.1434 18.2316C64.7336 16.8 60.3634 20.379 56.222 24.5684C55.785 24.4211 55.3272 24.2527 54.8901 24.1053C55.2647 22.4632 55.0982 20.3369 56.0764 19.2842C60.2593 14.7579 65.795 13.4316 71.7053 13.6632C74.7645 13.7684 75.7009 15.7684 75.6593 18.6737C75.4928 27.4105 68.3755 34.6527 58.5112 35.979C58.0742 35.5369 57.6372 35.0737 57.2001 34.6316Z" fill="black"/>
<path d="M32.0396 18.0632C41.6542 18.0632 46.7944 22.1263 48.9796 31.179C39.9061 33.579 31.8315 27.4947 32.0396 18.0632Z" fill="white"/>
</svg>
