<svg width="100" height="100" viewBox="0 0 100 100" fill="none" xmlns="http://www.w3.org/2000/svg">
<path d="M92 92C65.0073 92 37.9927 92 11 92C11 63.9926 11 36.0074 11 8C37.9927 8 65.0073 8 92 8C92 36.0074 92 63.9926 92 92ZM46.4649 73.1442C46.4649 77.6095 46.3116 81.7653 46.5524 85.921C46.64 87.2474 47.8003 88.4853 48.4789 89.7674C49.3546 88.4853 50.887 87.2474 50.9965 85.8989C51.3249 81.6105 51.1278 77.2558 51.1278 72.9232C60.607 71.1768 67.6562 66.5789 70.8962 57.9579C72.6257 53.36 72.2973 48.0105 73.1949 43.0589C73.4795 41.4453 74.5959 39.9863 75.4497 38.5053C76.0846 37.4 76.9165 36.4274 77.6389 35.3884C76.413 34.8137 75.2089 33.7968 73.983 33.7747C67.8751 33.5979 61.7454 33.6863 55.6376 33.6863C45.02 33.6863 34.4024 33.62 23.7849 33.7747C22.4495 33.7747 21.1141 34.9684 19.8005 35.6095C20.8076 36.6042 21.7708 37.6432 22.8216 38.5937C23.3032 39.0358 23.9162 39.3011 24.2884 39.5442C25.3611 62.2905 29.2359 68.2589 46.443 73.1663L46.4649 73.1442ZM39.0654 28.4253C39.0654 23.7611 39.2186 19.2295 38.9559 14.7421C38.8903 13.6589 37.4892 12.6642 36.7011 11.6253C35.8911 12.62 34.4243 13.5926 34.3805 14.6316C34.1178 19.1189 34.2711 23.6284 34.2711 28.4032H39.0873L39.0654 28.4253ZM63.3435 28.4474C63.3435 23.7832 63.4968 19.2737 63.2341 14.7863C63.1684 13.6811 61.7454 12.6863 60.9354 11.6253C60.1473 12.62 58.7024 13.5705 58.6586 14.6095C58.4178 19.2516 58.5492 23.8937 58.5492 28.7126C60.4319 28.6021 61.6578 28.5358 63.3435 28.4253V28.4474Z" fill="white"/>
<path d="M46.7169 73.4295C29.4618 68.5311 25.5761 62.5737 24.5004 39.8692C24.1272 39.6265 23.4905 39.3617 23.0295 38.9204C21.9758 37.9716 21.0098 36.9346 20 35.9417C21.3391 35.3018 22.6563 34.1324 23.9955 34.1103C34.6427 33.9559 45.2899 34.0221 55.9372 34.0221C62.0621 34.0221 68.2089 33.9338 74.3338 34.1103C75.5632 34.1545 76.7706 35.1694 78 35.721C77.2536 36.7581 76.4413 37.751 75.8047 38.8322C74.9485 40.2884 73.8289 41.7667 73.5435 43.3775C72.6654 48.3199 72.9727 53.6596 71.2385 58.249C67.9894 66.8542 60.9205 71.4437 51.4148 73.1868C51.4148 77.5114 51.6124 81.8361 51.2831 86.1387C51.1734 87.4846 49.6366 88.7203 48.7585 90C48.078 88.7203 46.8925 87.4626 46.8266 86.1608C46.5632 82.0126 46.7388 77.8645 46.7388 73.4074L46.7169 73.4295ZM30.0765 39.0087C28.3202 52.9094 31.1961 61.1615 39.4285 65.6186C46.7827 69.6123 54.0053 69.1048 60.7668 64.0961C67.704 58.933 70.3823 49.0922 67.6601 39.0087H30.0765Z" fill="black"/>
<path d="M38.9769 27.9789H34.0455C34.0455 23.4316 33.8886 19.1368 34.1576 14.8632C34.2248 13.8737 35.7042 12.9474 36.5336 12C37.3406 12.9895 38.7752 13.9368 38.8424 14.9684C39.1114 19.2421 38.9545 23.5368 38.9545 28L38.9769 27.9789Z" fill="black"/>
<path d="M63.9544 28.7141C62.2254 28.8021 60.9678 28.89 59.0367 29C59.0367 24.2057 58.9019 19.5653 59.149 14.969C59.2163 13.9353 60.6759 12.9897 61.4843 12C62.3152 13.0556 63.7748 14.0453 63.8421 15.1449C64.1116 19.6093 63.9544 24.0957 63.9544 28.7361V28.7141Z" fill="black"/>
</svg>
