<svg width="100" height="100" viewBox="0 0 100 100" fill="none" xmlns="http://www.w3.org/2000/svg">
<path d="M77.679 49.6201C78.259 50.1401 78.999 50.5501 79.399 51.1801C82.569 56.2301 85.769 61.2701 88.769 66.4201C91.979 71.9301 88.269 78.2801 81.869 78.3201C71.919 78.3801 61.969 78.3401 52.019 78.3401C51.069 78.3401 50.119 78.3401 49.169 78.3401L48.879 79.0201C51.819 81.6901 54.759 84.3601 57.699 87.0301C57.579 87.2901 57.459 87.5501 57.329 87.8101C56.629 87.5901 55.769 87.5601 55.259 87.1301C52.029 84.4101 48.889 81.5701 45.679 78.8201C44.509 77.8201 44.489 77.0401 45.679 76.0301C48.969 73.2501 52.189 70.3801 55.479 67.6001C55.899 67.2501 56.599 67.2201 57.159 67.0401C56.999 67.6601 57.039 68.4901 56.639 68.8701C54.659 70.7501 52.559 72.5101 50.509 74.3201C49.909 74.8501 49.349 75.4101 48.389 76.3101C49.499 76.4901 50.089 76.6701 50.689 76.6701C60.719 76.6901 70.749 76.7201 80.789 76.6701C85.559 76.6401 88.429 73.8801 87.949 69.7901C87.809 68.6201 87.209 67.4401 86.579 66.4001C83.809 61.7901 80.949 57.2301 78.139 52.6301C77.689 51.8901 77.319 51.1001 76.909 50.3301L77.659 49.6401L77.679 49.6201Z" fill="black"/>
<path d="M33.4988 52.4401C32.5888 48.5601 31.6888 44.6801 30.7788 40.8001C30.5388 40.7701 30.3088 40.7401 30.0688 40.7101C24.4488 49.9501 18.7088 59.1201 13.2988 68.4701C11.6788 71.2701 13.6988 75.0501 16.8488 76.0801C18.0788 76.4901 19.4488 76.6201 20.7488 76.6401C25.4688 76.7001 30.1988 76.6601 34.9188 76.6701C35.7688 76.6701 36.6288 76.8001 37.4788 76.8601C37.5188 77.1201 37.5588 77.3801 37.5888 77.6401C36.9488 77.8701 36.3088 78.2801 35.6688 78.2901C29.9488 78.3401 24.2288 78.4401 18.5188 78.2801C12.8388 78.1101 8.70879 71.7601 12.4088 65.8901C17.3988 57.9801 22.2488 49.9801 27.1488 42.0101C27.6088 41.2601 27.9988 40.4601 28.5988 39.3501C24.0488 39.7001 20.4088 42.4701 16.1988 42.3501C16.1088 42.1101 16.0088 41.8701 15.9188 41.6301C16.5488 41.2501 17.1388 40.7401 17.8188 40.5101C21.7388 39.2001 25.6888 38.0001 29.5988 36.6601C30.9888 36.1901 31.8788 36.3801 32.1988 37.8801C33.0988 42.0701 33.9788 46.2701 34.8088 50.4801C34.9188 51.0401 34.6588 51.6801 34.5688 52.2801C34.2088 52.3301 33.8488 52.3701 33.4888 52.4201L33.4988 52.4401Z" fill="black"/>
<path d="M72.889 40.3001C73.979 35.6901 74.909 31.7401 75.839 27.7901C76.209 27.8501 76.569 27.9101 76.939 27.9701C76.989 28.7001 77.189 29.4701 77.059 30.1701C76.309 34.0601 75.449 37.9301 74.669 41.8201C74.329 43.5201 73.639 44.2001 71.759 43.5101C67.879 42.0901 63.899 40.9201 59.999 39.5601C59.409 39.3501 58.969 38.7101 58.459 38.2701C59.159 38.1401 59.929 37.7601 60.549 37.9401C63.769 38.8601 66.949 39.9301 70.509 40.4601C70.099 39.7001 69.729 38.9301 69.279 38.2001C65.469 31.9901 61.649 25.7701 57.809 19.5701C53.919 13.3001 47.149 13.2601 43.229 19.4901C41.159 22.7901 39.159 26.1301 37.069 29.4201C36.639 30.1001 35.969 30.6401 35.409 31.2401L34.729 30.8501C34.919 30.1501 34.969 29.3701 35.329 28.7701C37.499 25.1401 39.659 21.5101 41.979 17.9701C46.329 11.3201 54.719 11.3401 59.009 18.0501C63.069 24.4001 66.939 30.8801 70.899 37.2901C71.399 38.1101 71.969 38.8901 72.899 40.2801L72.889 40.3001Z" fill="black"/>
</svg>
