<svg width="100" height="100" viewBox="0 0 100 100" fill="none" xmlns="http://www.w3.org/2000/svg">
<path d="M89 73.5766C86.0594 77.1906 82.2877 78.3093 77.685 78.1372C70.0778 77.8575 62.4706 78.0511 53.2652 78.0511C55.5878 80.3314 57.2073 81.5361 58.3154 83.128C58.9759 84.0745 58.8694 85.5804 59.1038 86.8281C57.8466 86.8281 56.2058 87.3013 55.4174 86.6775C51.944 83.9024 48.5986 80.9338 45.5088 77.7285C44.8269 77.0186 44.8269 74.4586 45.5301 73.7487C48.6199 70.5434 51.9653 67.5747 55.4387 64.7782C56.2058 64.1543 57.8679 64.6491 59.1038 64.6061C58.8694 65.8753 58.9972 67.3811 58.3154 68.3277C57.2499 69.855 55.6518 71.0167 53.2652 73.3185C63.1524 73.3185 71.7612 73.5336 80.3486 73.2324C84.5038 73.0818 85.9742 69.769 83.9285 65.8753C82.096 62.3903 79.7946 59.1635 78.0047 55.6786C77.5359 54.7535 78.1965 53.2477 78.3456 52C79.5602 52.4087 81.2436 52.4518 81.8829 53.3122C84.4186 56.6896 86.6347 60.3252 88.9574 63.8532V73.5551L89 73.5766Z" fill="black"/>
<path d="M31.0992 45.4053C26.4317 53.1051 22.3084 59.546 18.541 66.2177C16.3642 70.0571 18.1851 72.9944 22.7689 73.3091C26.055 73.5399 29.4039 73.1622 32.6899 73.4979C33.883 73.6238 34.9714 74.9455 36.1016 75.7008C34.9504 76.4351 33.862 77.673 32.6481 77.8198C29.7178 78.1345 26.7457 77.9457 23.7736 77.9247C13.9153 77.8408 10.2107 71.1691 15.234 62.4833C17.1596 59.1684 19.1898 55.9164 21.1782 52.6225C23.0619 49.4965 24.9457 46.3704 27.4783 42.1953C24.3387 43.0765 22.2247 43.9157 20.048 44.1885C18.9596 44.3143 17.7247 43.3912 16.5735 42.9296C17.2851 41.9016 17.8084 40.37 18.7712 39.9714C22.6224 38.3979 26.5782 36.9293 30.6178 36.0271C31.769 35.7754 34.1969 37.3279 34.6155 38.5238C35.8086 42.1324 36.4783 45.9718 36.9807 49.7692C37.1481 51.028 36.1853 52.4547 35.7248 53.7974C34.6365 52.7694 33.2969 51.8882 32.5225 50.6504C31.8527 49.5804 31.7899 48.0908 31.1411 45.4473L31.0992 45.4053Z" fill="black"/>
<path d="M72.6273 37.3056C73.3951 34.0276 73.6365 31.8637 74.4701 29.9569C74.9089 28.9499 76.4445 28.4143 77.4756 27.6644C78.0021 28.6714 79.1209 29.7641 78.9893 30.6853C78.2654 35.2488 77.3878 39.8337 76.1374 44.2686C75.8961 45.147 73.5048 46.2183 72.4079 45.9612C68.1739 44.9756 63.9837 43.6473 59.9471 42.0404C58.916 41.6334 58.4992 39.7051 57.8191 38.4839C59.0696 38.184 60.364 37.5198 61.5486 37.6912C63.4353 37.9483 65.2561 38.741 68.1958 39.6409C64.0057 32.8707 60.5833 27.0217 56.81 21.387C53.5193 16.4807 48.8246 16.5664 45.3803 21.387C43.9324 23.4223 42.8794 25.7791 41.2559 27.6859C40.51 28.5643 38.8866 28.7357 37.68 29.2284C37.4607 27.9644 36.6709 26.379 37.1535 25.4791C38.8647 22.3511 40.6636 19.1374 43.0549 16.5236C48.0348 11.1031 56.4151 12.0672 60.8027 18.5161C64.7077 24.2793 68.2397 30.2783 72.6273 37.3056Z" fill="black"/>
</svg>
