<svg width="100" height="100" viewBox="0 0 100 100" fill="none" xmlns="http://www.w3.org/2000/svg">
<path d="M14.4801 36.2527C16.0001 36.4427 16.9401 36.6627 17.8701 36.6627C24.0101 36.6927 30.1501 36.6427 36.2901 36.7327C37.0201 36.7327 37.7501 37.3927 38.4701 37.7527C37.7401 38.1227 37.0101 38.7927 36.2701 38.8027C28.6401 38.8827 21.0101 38.8327 13.3701 38.8627C11.6601 38.8627 10.9901 38.1227 11.0001 36.4627C11.0301 28.8327 10.9801 21.2027 11.0601 13.5827C11.0601 12.8627 11.7401 12.1527 12.1001 11.4327C12.4001 12.1927 12.9601 12.9627 12.9701 13.7327C13.0501 19.2027 13.0001 24.6727 13.0301 30.1527C13.0301 31.0927 13.2501 32.0327 13.4601 33.7327C15.5301 31.0827 17.1401 29.0227 18.7301 26.9527C27.0501 16.1527 38.1301 10.8627 51.6701 11.0027C69.8701 11.1927 86.1001 25.5327 89.1901 43.4727C93.0701 66.0227 77.9701 86.4527 56.1301 89.4927C39.7601 91.7727 25.3401 84.8627 16.6701 70.9127C16.4101 70.4927 16.0801 70.0627 15.9901 69.5927C15.9201 69.1827 16.0101 68.4927 16.2701 68.3427C16.5801 68.1627 17.3101 68.2527 17.5801 68.5127C18.1601 69.0827 18.5601 69.8327 19.0301 70.5127C27.0301 82.2327 37.9601 88.0527 52.3001 87.6027C69.2801 87.0727 84.6901 73.8027 87.2801 56.1927C90.3801 35.1027 76.1901 16.5827 55.8201 13.6327C41.9301 11.6227 30.4101 16.5027 21.3601 27.1527C19.0201 29.9027 16.9901 32.9127 14.4801 36.2527Z" fill="black"/>
</svg>
