<svg width="100" height="100" viewBox="0 0 100 100" fill="none" xmlns="http://www.w3.org/2000/svg">
<path d="M52.6051 50.3333C48.6051 46.9633 44.7451 43.7233 40.9151 40.4633C39.4951 39.2533 38.8051 40.6833 38.0151 41.3033C32.3751 45.7133 25.0251 46.4233 18.8951 43.0933C12.3751 39.5633 9.3251 32.5033 10.1251 26.7833C11.3451 18.0433 16.4051 12.9833 24.0051 11.3233C32.2751 9.52328 44.0851 15.2433 44.2451 28.4033C44.2751 31.0733 42.9651 33.8233 41.9851 36.4233C41.5051 37.6833 41.3051 38.4033 42.4751 39.3633C45.8951 42.1233 49.2651 44.9433 52.5351 47.8733C53.8951 49.0933 54.8051 48.9133 56.1051 47.8033C66.0751 39.3133 76.0951 30.8833 86.1051 22.4233C86.2951 22.2633 86.4551 22.0033 86.6651 21.9433C87.3451 21.7533 88.0551 21.6233 88.7551 21.4733C88.4751 22.0733 88.3451 22.8433 87.8951 23.2533C85.0351 25.7733 82.1151 28.2233 79.2051 30.6933C67.1151 40.9133 55.0451 51.1633 42.9151 61.3333C41.5051 62.5133 41.4051 63.3633 42.2351 65.0433C45.4351 71.5533 44.9751 77.9033 40.3851 83.6333C35.8251 89.3233 29.6651 91.0833 22.7751 89.3333C15.6951 87.5333 11.6051 82.6733 10.2951 75.4233C8.9151 67.7533 13.7551 60.8333 18.5051 58.1333C24.4651 54.7433 31.8851 54.9333 37.3651 59.3633C39.4851 61.0733 40.7351 61.0933 42.6651 59.2233C45.3351 56.6233 48.3351 54.3733 51.1651 51.9533C51.6451 51.5433 52.0251 51.0133 52.6251 50.3333H52.6051ZM27.2951 13.0533C18.6251 13.0433 12.0251 19.4533 11.9951 27.9133C11.9651 36.6033 18.5251 43.2933 27.0851 43.3033C35.5951 43.3033 42.2551 36.7033 42.2751 28.2533C42.2851 19.6433 35.8151 13.0733 27.3051 13.0533H27.2951ZM27.2951 57.8333C18.6251 57.8233 12.0251 64.2333 11.9951 72.6833C11.9651 81.3833 18.5251 88.0733 27.0851 88.0733C35.5851 88.0733 42.2551 81.4633 42.2651 73.0133C42.2851 64.4033 35.8151 57.8333 27.2951 57.8233V57.8333Z" fill="black"/>
<path d="M88.5751 79.8733C87.9051 79.5933 87.1051 79.4633 86.5751 79.0233C77.8151 71.6633 69.0951 64.2733 60.3651 56.8733C59.9351 56.5133 59.6051 56.0433 59.2251 55.6233L59.5351 54.8533C60.3751 55.1833 61.3651 55.3333 62.0151 55.8833C68.9451 61.6733 75.8251 67.5333 82.7251 73.3633C84.3051 74.7033 85.8951 76.0333 87.4551 77.3933C88.0351 77.9033 88.5351 78.5033 89.0651 79.0633C88.8951 79.3333 88.7251 79.5933 88.5651 79.8633L88.5751 79.8733Z" fill="black"/>
</svg>
