<svg width="100" height="100" viewBox="0 0 100 100" fill="none" xmlns="http://www.w3.org/2000/svg">
<path d="M28.88 16.01C32.53 16.01 36.18 15.99 39.83 16.01C42.85 16.03 45.46 17.01 47.65 19.21C56.12 27.74 64.67 36.2 73.13 44.74C77.32 48.97 77.47 54.4 73.3 58.69C66.54 65.65 59.67 72.51 52.7 79.26C48.55 83.28 43.03 83.19 38.91 79.13C30.22 70.58 21.64 61.92 13.02 53.3C10.83 51.11 10.05 48.36 10.03 45.38C9.99 38.42 9.99 31.45 10.03 24.49C10.06 18.78 12.93 16 18.68 16C22.08 16 25.48 16 28.88 16V16.01ZM12.1 35.19C12.1 38.59 12.23 42 12.06 45.39C11.9 48.46 13.03 50.8 15.16 52.9C23.36 61.01 31.48 69.19 39.66 77.32C43.79 81.43 47.95 81.48 52.05 77.42C58.65 70.89 65.22 64.32 71.76 57.71C75.39 54.04 75.44 49.69 71.84 46.04C63.38 37.49 54.91 28.95 46.28 20.57C44.92 19.25 42.7 18.19 40.83 18.12C32.96 17.85 25.08 17.92 17.2 18.04C13.85 18.09 12.13 20.11 12.1 23.48C12.07 27.38 12.1 31.27 12.1 35.17V35.19Z" fill="black"/>
<path d="M62.33 84.13C62.89 83.48 63.4 82.79 64 82.18C69.94 76.15 75.74 69.98 81.87 64.16C89.04 57.36 88.79 45.97 81.95 39.56C75.12 33.15 68.73 26.28 62.14 19.61C61.79 19.26 61.35 18.96 61.11 18.54C60.75 17.9 60.53 17.18 60.25 16.5C60.95 16.73 61.82 16.77 62.31 17.22C64.02 18.78 65.61 20.48 67.24 22.14C72.59 27.58 77.93 33.03 83.3 38.46C91 46.24 91.06 57.33 83.38 65.15C77.4 71.25 71.41 77.34 65.37 83.39C64.7 84.07 63.72 84.44 62.88 84.96C62.69 84.69 62.5 84.42 62.31 84.15L62.33 84.13Z" fill="black"/>
<path d="M27.2397 27.37C30.4997 27.37 33.0397 29.92 33.0497 33.18C33.0497 36.34 30.3397 39.03 27.1897 38.99C23.9797 38.95 21.4097 36.34 21.4097 33.12C21.4097 29.84 23.9297 27.36 27.2397 27.37ZM27.2197 37.24C29.2397 37.25 31.2197 35.33 31.2997 33.29C31.3897 31.15 29.3997 29.09 27.2397 29.08C25.0697 29.08 23.0697 31.11 23.1397 33.25C23.1997 35.26 25.2197 37.23 27.2097 37.24H27.2197Z" fill="black"/>
</svg>
