<svg width="100" height="100" viewBox="0 0 100 100" fill="none" xmlns="http://www.w3.org/2000/svg">
<path d="M82.26 49.55C82.26 58.38 82.28 67.21 82.26 76.05C82.24 81.57 79.69 84.22 74.2 84.24C58.2 84.29 42.21 84.29 26.21 84.24C20.68 84.22 18 81.39 18 75.85C18 58.35 18 40.86 18 23.36C18 17.96 20.94 15 26.3 15C42.3 15 58.29 15 74.29 15C79.36 15 82.22 17.77 82.25 22.82C82.3 31.73 82.26 40.65 82.27 49.57L82.26 49.55ZM50.16 34.26C41.83 34.26 33.5 34.27 25.17 34.25C23.5 34.25 22.24 34.4 22.25 36.6C22.3 49.68 22.25 62.76 22.3 75.83C22.31 78.96 23.46 79.97 26.61 79.98C42.35 79.99 58.1 79.99 73.84 79.98C77.05 79.98 77.99 79.02 77.99 75.8C78 62.89 77.94 49.98 78.04 37.07C78.06 34.82 77.27 34.21 75.15 34.24C66.82 34.32 58.49 34.27 50.16 34.27V34.26ZM50.03 29.98C57.52 29.98 65 29.98 72.49 29.98C76.1567 29.98 77.99 28.1367 77.99 24.45C77.99 19.97 77.29 19.26 72.79 19.26C58.57 19.26 44.34 19.26 30.12 19.26C22.31 19.26 22.17 19.46 22.23 27.17C22.24 29.3 22.86 30.06 25.09 30.03C33.41 29.91 41.73 29.98 50.04 29.98H50.03Z" fill="black"/>
<path d="M50.29 74.26C40.55 74.28 32.98 66.93 32.96 57.44C32.94 47.92 40.48 40.46 50.13 40.45C59.74 40.45 67.71 47.93 67.55 57.28C67.36 68.39 58.13 74.67 50.29 74.26ZM62.6 56.93C62.75 56.57 62.91 56.34 62.92 56.12C63.01 50.63 57.3 45.1 51.11 44.66C44.87 44.22 38.28 49.05 37.77 54.62C37.71 55.29 38.53 56.45 39.21 56.72C42.39 57.98 45.57 57.76 48.9 56.77C51.77 55.92 54.88 55.68 57.89 55.6C59.44 55.56 61.02 56.46 62.61 56.94L62.6 56.93ZM61.83 61.99C59.24 59.93 56.19 58.85 53.04 59.89C48.28 61.47 43.62 63.01 38.5 61.18C39.11 65.67 44.03 69.67 48.91 69.98C55 70.37 60.31 67.12 61.82 61.99H61.83Z" fill="black"/>
<path d="M68.5499 27.16C67.5599 26.39 66.4399 25.73 65.6699 24.78C65.5099 24.58 66.6199 22.7 67.1399 22.7C68.7399 22.7 70.7999 22.74 71.8299 23.69C73.2099 24.96 71.5799 26.66 68.5399 27.16H68.5499Z" fill="black"/>
</svg>
