<svg width="100" height="100" viewBox="0 0 100 100" fill="none" xmlns="http://www.w3.org/2000/svg">
<path d="M86 88C61.6732 88 37.3268 88 13 88C13 62.9934 13 38.0066 13 13C37.3268 13 61.6732 13 86 13C86 38.0066 86 62.9934 86 88ZM49.8749 84.1118C69.1705 84.1118 84.9149 68.4211 84.8951 49.2171C84.8951 29.7171 68.993 13.8487 49.6381 13.9868C30.3819 14.1447 14.9335 29.8158 14.9532 49.1974C14.9532 68.5395 30.5397 84.0921 49.8749 84.0921V84.1118Z" fill="white"/>
<path d="M49.9506 84C30.5995 84 15.0198 68.4754 15 49.168C14.9803 29.8016 30.4415 14.1588 49.7137 14.0012C69.0846 13.8436 85 29.7031 85 49.168C85 68.3374 69.2623 84 49.9506 84ZM40.8674 41.8786C40.67 42.2529 40.4725 42.6075 40.275 42.9818C40.8872 43.6123 41.3808 44.6367 42.1114 44.8338C46.5543 45.9961 50.9972 47.3949 55.5388 47.9072C60.1199 48.4194 63.3385 50.3304 64.6812 54.5662C65.9845 58.6838 65.0959 62.3679 61.6009 65.5202C59.3498 67.5494 57.4937 70.2288 56.0917 72.9476C54.4725 76.1195 52.0635 78.2866 48.8844 77.0454C46.653 76.1786 44.6192 73.5189 43.5529 71.1941C41.3413 66.2688 40.0578 60.9297 37.8463 56.0044C37.2144 54.6056 34.7264 53.9555 33.0085 53.1674C28.6051 51.1579 24.1425 49.2666 19.8181 47.3949C16.9549 61.5405 29.5332 77.2621 46.2384 79.3505C62.134 81.36 78.622 69.4998 79.1749 55.6498C70.0522 52.2415 67.3865 49.168 66.5374 41.5042C65.8068 34.9831 71.6911 34.6482 75.5021 32.1264C69.4598 23.6548 61.6798 19.1038 52.5571 18.6901C51.7475 22.2363 51.787 25.4673 50.3258 27.733C48.5289 30.5109 47.4429 32.2643 50.0691 35.1998C51.0959 36.3425 51.2341 39.5341 50.3456 40.8147C49.4767 42.0953 46.8505 42.4105 44.9154 42.6666C43.6121 42.8439 42.2102 42.1544 40.8477 41.8589L40.8674 41.8786ZM46.7715 38.352C42.5261 31.9294 42.6248 31.9885 46.6925 25.4082C47.3837 24.2656 47.1862 22.0196 46.4951 20.7784C45.9817 19.8722 43.8491 19.1826 42.7038 19.4584C33.6996 21.6256 26.9464 26.8661 22.7997 35.1407C22.1284 36.4804 22.3258 38.4702 22.6418 40.0463C23.8463 46.2917 29.0593 47.6116 34.134 48.9119C39.7814 50.3501 43.3357 53.4038 43.4739 59.6295C43.4937 60.6342 44.2835 61.6193 44.7377 62.6044C45.8237 65.0079 46.89 67.4115 47.9958 69.815C48.4894 70.8789 49.0621 71.9231 49.5952 72.987C50.4838 72.0216 51.4711 71.1547 52.2214 70.1106C53.8011 67.9237 54.8477 65.1655 56.842 63.55C59.4288 61.4814 61.7983 59.6886 60.653 56.0635C59.4683 52.2809 56.0917 52.931 53.0705 52.3006C48.1143 51.2367 43.1185 49.8182 38.6361 47.5328C37.1157 46.7645 36.1086 42.5681 36.7997 40.6374C37.3526 39.0613 40.749 38.3323 43 37.6034C43.9083 37.3078 45.1326 37.9974 46.7715 38.3717V38.352ZM80.9718 51.02C80.0832 45.8582 79.3131 41.2481 78.5233 36.638C77.9506 36.3819 77.378 36.1455 76.8054 35.8893C74.8505 37.7807 71.3554 39.5735 71.2172 41.583C70.8618 47.0206 73.6657 49.4636 80.952 51.02H80.9718Z" fill="black"/>
</svg>
